
        <svg xmlns="http://www.w3.org/2000/svg" xmlns:xlink="http://www.w3.org/1999/xlink" version="1.1" width="3174.3038666411226" height="697.6975162902149" viewBox="0 0 3174.3038666411226 697.6975162902149">
			
			<g transform="scale(8.715193332056133) translate(10, 10)">
				<defs id="SvgjsDefs6116"/><g id="SvgjsG6117" featureKey="nameLeftFeature-0" transform="matrix(2.0063514709472656,0,0,2.0063514709472656,-1.123637103306662,19.9281201567598)" fill="#000"><path d="M9.52 17.740000000000002 c0.14666 0.06666 0.2634 0.15 0.35006 0.25 s0.13 0.30334 0.13 0.61 l0 1.4 l-0.64 0 l-1.36 0 l-0.22 0 c-0.33334 0 -0.58 -0.06334 -0.74 -0.19 s-0.33334 -0.39666 -0.52 -0.81 l-2.02 -4.76 l-0.56 1.02 l0 2.14 c0 0.13334 0.02 0.22668 0.06 0.28002 s0.08666 0.10668 0.14 0.16002 c0.10666 0.08 0.21332 0.19334 0.31998 0.34 s0.16 0.33332 0.16 0.55998 l0 1.26 l-0.14 0 l-3.92 0 l0 -1.06 l0 -0.2 c0 -0.22666 0.05334 -0.41332 0.16 -0.55998 s0.21332 -0.26 0.31998 -0.34 c0.06666 -0.05334 0.11666 -0.10668 0.15 -0.16002 s0.05 -0.14668 0.05 -0.28002 l0 -0.66 l0 -9.1 c0 -0.14666 -0.01666 -0.24666 -0.05 -0.3 s-0.08334 -0.1 -0.15 -0.14 c-0.10666 -0.08 -0.21332 -0.19334 -0.31998 -0.34 s-0.16 -0.33332 -0.16 -0.55998 l0 -0.2 l0 -1.04 l0 -0.02 l4.06 0 l0 1.26 c0 0.22666 -0.05334 0.41332 -0.16 0.55998 s-0.21332 0.26 -0.31998 0.34 c-0.05334 0.04 -0.1 0.08666 -0.14 0.14 s-0.06 0.15334 -0.06 0.3 l0 2.78 l2.7 -4.84 c0.08 -0.09334 0.16666 -0.18 0.26 -0.26 c0.08 -0.06666 0.18 -0.13 0.3 -0.19 s0.26 -0.09 0.42 -0.09 l1.7 0 l0 1.26 c0 0.54666 -0.14666 0.88 -0.44 1 c-0.12 0.05334 -0.23 0.11 -0.33 0.17 s-0.17 0.13666 -0.21 0.23 c-0.02666 0.05334 -0.13666 0.24668 -0.33 0.58002 s-0.40668 0.71 -0.64002 1.13 s-0.45668 0.82666 -0.67002 1.22 s-0.36 0.67 -0.44 0.83 c-0.02666 0.06666 -0.03666 0.12666 -0.03 0.18 s0.02332 0.13334 0.04998 0.24 l2.12 5.12 c0.06666 0.14666 0.15 0.26332 0.25 0.34998 s0.20334 0.15666 0.31 0.21 s0.21 0.09 0.31 0.11 s0.18334 0.04334 0.25 0.07 z M14.780000000000001 7.359999999999999 c-0.06666 0 -0.12998 0.030058 -0.18998 0.090058 s-0.09 0.12334 -0.09 0.19 l0 3.32 c0 0.09334 0.03 0.16334 0.09 0.21 s0.13 0.07 0.21 0.07 l2.52 0 c0.06666 0 0.13666 0.02334 0.21 0.07 s0.11 0.12332 0.11 0.22998 l0 1.6 c0 0.18666 -0.1 0.28 -0.3 0.28 l-2.54 0 c-0.2 0 -0.3 0.08666 -0.3 0.26 l0 3.74 c0 0.08 0.03334 0.14666 0.1 0.2 s0.14 0.08 0.22 0.08 l1.6 0 c0.12 0 0.21334 -0.06666 0.28 -0.2 c0.02666 -0.06666 0.06 -0.14666 0.1 -0.24 s0.09666 -0.18 0.17 -0.26 s0.16334 -0.15 0.27 -0.21 s0.23332 -0.09 0.37998 -0.09 l1.24 0 l0 2.8 c0 0.14666 -0.07334 0.26666 -0.22 0.36 s-0.29332 0.14 -0.43998 0.14 l-1.3 0 l-4.58 0 l-1.2 0 l0 -1.2 c0 -0.29334 0.04 -0.51668 0.12 -0.67002 s0.18666 -0.26334 0.32 -0.33 c0.16 -0.09334 0.24 -0.23334 0.24 -0.42 l0 -9.72 c0 -0.21334 -0.08666 -0.36668 -0.26 -0.46002 c-0.13334 -0.06666 -0.23668 -0.17 -0.31002 -0.31 s-0.11 -0.34334 -0.11 -0.61 l0 -1.26 l7.16 0 c0.16 0 0.29666 0.06 0.41 0.18 s0.17 0.23334 0.17 0.34 l0 2.64 l-1.18 0 c-0.26666 0 -0.48 -0.06666 -0.64 -0.2 s-0.27334 -0.26 -0.34 -0.38 c-0.09334 -0.16 -0.23334 -0.24 -0.42 -0.24 l-1.5 0 l0 0 z M29.840000000000003 5.039999999999999 l0 1.3401 c0 0.21334 -0.05 0.39 -0.15 0.53 s-0.20334 0.25 -0.31 0.33 c-0.04 0.02666 -0.07666 0.06332 -0.11 0.10998 s-0.05668 0.11666 -0.07002 0.21 l0 11.86 c0 0.24 -0.04334 0.39666 -0.13 0.47 s-0.20332 0.11 -0.34998 0.11 l-1.22 0 c-0.37334 0 -0.63334 -0.16 -0.78 -0.48 c-0.04 -0.08 -0.14666 -0.32334 -0.32 -0.73 s-0.38 -0.89 -0.62 -1.45 s-0.49334 -1.1567 -0.76 -1.79 s-0.51332 -1.22 -0.73998 -1.76 s-0.42 -0.99334 -0.58 -1.36 s-0.24 -0.55666 -0.24 -0.57 s-0.0066602 -0.01334 -0.02 0 s-0.02 0.06 -0.02 0.14 l0 5.38 c0 0.12 0.02666 0.20666 0.08 0.26 s0.11334 0.1 0.18 0.14 c0.09334 0.06666 0.19 0.17332 0.29 0.31998 s0.15 0.33332 0.15 0.55998 l0 1.34 l-4.02 0 l0 -1.36 c0 -0.21334 0.05 -0.39 0.15 -0.53 s0.20334 -0.24334 0.31 -0.31 c0.04 -0.04 0.07666 -0.08 0.11 -0.12 s0.05668 -0.10666 0.07002 -0.2 l0 -10.02 c-0.13334 -0.04 -0.25334 -0.10666 -0.36 -0.2 c-0.09334 -0.08 -0.17668 -0.19334 -0.25002 -0.34 s-0.11 -0.33332 -0.11 -0.55998 l0 -1.32 l2.78 0 c0.16 0 0.3 0.08 0.42 0.24 s0.2 0.30666 0.24 0.44 c0.02666 0.09334 0.11332 0.32334 0.25998 0.69 s0.32666 0.80666 0.54 1.32 s0.44334 1.0633 0.69 1.65 s0.47666 1.14 0.69 1.66 s0.39668 0.97334 0.55002 1.36 s0.25 0.63332 0.29 0.73998 c0.01334 0.02666 0.02334 0.02666 0.03 0 s0.01 -0.06 0.01 -0.1 l0 -5.38 c0 -0.12 -0.02666 -0.21 -0.08 -0.27 s-0.11334 -0.11 -0.18 -0.15 c-0.09334 -0.06666 -0.18668 -0.17 -0.28002 -0.31 s-0.14 -0.33 -0.14 -0.57 l0 -1.32 l4 0 z"/></g><g id="SvgjsG6118" featureKey="inlineSymbolFeature-0" transform="matrix(0.5306602716445923,0,0,0.5306602716445923,56.919928293135044,17.768040685492924)" fill="#000"><path xmlns="http://www.w3.org/2000/svg" d="M50.468,79.688c3.308-0.008,4.781-0.357,4.781-0.357s-0.949-3.729-1.13-5.967s-0.284-3.404,0-6.465  c0.27-2.9,0.722-8.166,2.679-9.426c1.716-1.105,7.724-3.627,9.293-4.621s6.639-4.724,7.664-5.532  c1.026-0.808,6.64-5.097,8.209-7.023s2.232-2.486,3.198-4.351c0.966-1.864,1.569-4.91,1.569-6.278c0-1.367,0-4.351-0.423-5.407  c-0.422-1.057-0.543-1.305-1.388-1.181c-0.845,0.124-0.604-0.125-1.146,0.994c-0.544,1.119-1.026,2.921-1.992,3.419  c-0.966,0.497-11.226,1.678-15.028,3.356c-3.802,1.678-6.99,3.261-11.226,6.34c-3.078,2.237-5.491,6.34-5.491,6.34l-0.033-0.053  c0,0-2.382-4.049-5.459-6.287c-4.235-3.079-7.424-4.662-11.227-6.34c-3.802-1.678-14.062-2.859-15.027-3.356  c-0.967-0.498-1.449-2.3-1.992-3.419c-0.543-1.119-0.302-0.87-1.146-0.994c-0.846-0.125-0.966,0.124-1.389,1.181  c-0.422,1.057-0.422,4.04-0.422,5.407c0,1.368,0.604,4.414,1.568,6.278c0.966,1.865,1.63,2.424,3.199,4.351s7.183,6.215,8.208,7.023  c1.026,0.808,6.096,4.538,7.665,5.532s7.576,3.516,9.293,4.621c1.957,1.26,3.138,6.525,3.388,9.426c0.279,3.252,0.181,4.227,0,6.465  s-0.936,6.076-0.936,6.076S47.579,79.691,50.468,79.688z"/></g><g id="SvgjsG6119" featureKey="nameRightFeature-0" transform="matrix(1.9567363262176514,0,0,1.9567363262176514,102.09986107223237,20.60758385497151)" fill="#000"><path d="M9.6 17.72 c0.10666 0.06666 0.2067 0.1733 0.30004 0.31996 s0.14 0.33332 0.14 0.55998 l0 1.4 l-4 0 l0 -1.16 c0 -0.24 0.04666 -0.46 0.14 -0.66 s0.19334 -0.33334 0.3 -0.4 c0.06666 -0.05334 0.12332 -0.10668 0.16998 -0.16002 s0.07 -0.14 0.07 -0.26 c-0.01334 -0.10666 -0.02668 -0.20666 -0.04002 -0.3 c-0.01334 -0.08 -0.03 -0.16334 -0.05 -0.25 s-0.03666 -0.16332 -0.05 -0.22998 c-0.02666 -0.10666 -0.07332 -0.17666 -0.13998 -0.21 s-0.15332 -0.05 -0.25998 -0.05 l-1.88 0 c-0.12 0 -0.20334 0.01 -0.25 0.03 s-0.08332 0.09666 -0.10998 0.23 c-0.01334 0.06666 -0.02668 0.14332 -0.04002 0.22998 s-0.03334 0.17 -0.06 0.25 c-0.02666 0.09334 -0.04666 0.19334 -0.06 0.3 c0 0.12 0.01334 0.20666 0.04 0.26 s0.07332 0.10668 0.13998 0.16002 c0.10666 0.06666 0.20666 0.20332 0.3 0.40998 s0.14 0.43 0.14 0.67 l0 1.14 l-3.94 0 l0 -1.4 c0 -0.22666 0.05 -0.41332 0.15 -0.55998 s0.19666 -0.25332 0.29 -0.31998 c0.06666 -0.05334 0.12666 -0.11334 0.18 -0.18 s0.09334 -0.15332 0.12 -0.25998 c0.37334 -1.7733 0.71334 -3.3666 1.02 -4.78 c0.13334 -0.6 0.26 -1.1867 0.38 -1.76 s0.23 -1.0867 0.33 -1.54 s0.18 -0.82 0.24 -1.1 s0.09 -0.42666 0.09 -0.44 c0.02666 -0.10666 0.04 -0.20332 0.04 -0.28998 s-0.03334 -0.14332 -0.1 -0.16998 c-0.14666 -0.06666 -0.26666 -0.17666 -0.36 -0.33 s-0.14 -0.38334 -0.14 -0.69 l0 -1.14 l3.1 0 c0.30666 0 0.55 0.09334 0.73 0.28 s0.29 0.39332 0.33 0.61998 c0 0.05334 0.03666 0.25668 0.11 0.61002 s0.17 0.8 0.29 1.34 s0.25334 1.1467 0.4 1.82 s0.29332 1.3567 0.43998 2.05 c0.34666 1.6267 0.74666 3.4666 1.2 5.52 c0.04 0.17334 0.14 0.32 0.3 0.44 z M5.96 14.02 c0.09334 0 0.15338 -0.009961 0.18004 -0.029962 s0.03332 -0.07 0.01998 -0.15 c0 -0.02666 -0.02334 -0.16666 -0.07 -0.42 s-0.1 -0.56 -0.16 -0.92 s-0.12666 -0.75 -0.2 -1.17 s-0.14 -0.81 -0.2 -1.17 s-0.11334 -0.66 -0.16 -0.9 s-0.07 -0.36666 -0.07 -0.38 c0 -0.05334 -0.01666 -0.07668 -0.05 -0.07002 s-0.05668 0.02332 -0.07002 0.04998 c0 0.01334 -0.02 0.14334 -0.06 0.39 s-0.09334 0.55 -0.16 0.91 s-0.13666 0.74666 -0.21 1.16 s-0.14334 0.80334 -0.21 1.17 s-0.12332 0.67666 -0.16998 0.93 s-0.07 0.39334 -0.07 0.42 c-0.01334 0.08 -0.0066796 0.13 0.01998 0.15 s0.08666 0.03 0.18 0.03 l1.46 0 z M15.3 20.1 c-0.49334 0 -0.97676 -0.05998 -1.4501 -0.17998 s-0.89334 -0.30334 -1.26 -0.55 s-0.66332 -0.56 -0.88998 -0.94 s-0.34 -0.82334 -0.34 -1.33 l0 -9.28 c0 -0.50666 0.11334 -0.95 0.34 -1.33 s0.52666 -0.69334 0.9 -0.94 s0.79668 -0.43332 1.27 -0.55998 s0.95668 -0.19 1.45 -0.19 s0.97668 0.06334 1.45 0.19 s0.89334 0.31332 1.26 0.55998 s0.66 0.56 0.88 0.94 s0.33 0.82334 0.33 1.33 l0 1.48 l-1.5 0 c-0.33334 0 -0.61334 -0.1 -0.84 -0.3 s-0.34 -0.46 -0.34 -0.78 l0 -0.02 c0 -0.13334 -0.01666 -0.26668 -0.05 -0.40002 s-0.09334 -0.25 -0.18 -0.35 s-0.21332 -0.18 -0.37998 -0.24 s-0.38332 -0.09 -0.64998 -0.09 c-0.25334 0 -0.46 0.03334 -0.62 0.1 s-0.28666 0.14666 -0.38 0.24 s-0.15668 0.2 -0.19002 0.32 s-0.05 0.22666 -0.05 0.32 l0 8.76 c0 0.18666 0.12 0.37666 0.36 0.57 s0.53334 0.29 0.88 0.29 s0.64666 -0.08 0.9 -0.24 s0.38 -0.34666 0.38 -0.56 l0 -0.2 c0 -0.30666 0.09 -0.57 0.27 -0.79 s0.45 -0.33 0.81 -0.33 l1.58 0 l0 1.5 c0 0.50666 -0.11334 0.95 -0.34 1.33 s-0.52332 0.69334 -0.88998 0.94 s-0.78666 0.43 -1.26 0.55 s-0.95668 0.18 -1.45 0.18 z M24.98 20.14 c-1.24 0 -2.22 -0.27666 -2.94 -0.83 s-1.08 -1.3433 -1.08 -2.37 l0 -8.88 c0 -1.0267 0.35666 -1.82 1.07 -2.38 s1.6967 -0.84 2.95 -0.84 c1.2667 0 2.2434 0.28 2.93 0.84 s1.03 1.3533 1.03 2.38 l0 8.88 c0 1.0267 -0.34666 1.8167 -1.04 2.37 s-1.6667 0.83 -2.92 0.83 z M26.16 8.3 c0 -0.24 -0.04664 -0.43336 -0.13998 -0.58002 s-0.20334 -0.26 -0.33 -0.34 s-0.25666 -0.13666 -0.39 -0.17 s-0.24 -0.05 -0.32 -0.05 s-0.18666 0.01334 -0.32 0.04 s-0.26668 0.07666 -0.40002 0.15 s-0.25 0.17668 -0.35 0.31002 s-0.15 0.31334 -0.15 0.54 l0 8.56 c0 0.2 0.04 0.36666 0.12 0.5 s0.18 0.24 0.3 0.32 s0.25334 0.14 0.4 0.18 s0.28 0.06 0.4 0.06 c0.28 0 0.54666 -0.08 0.8 -0.24 s0.38 -0.44 0.38 -0.84 l0 -8.44 z M37.52 5.039999999999999 c0.10666 0 0.21998 0.053282 0.33998 0.15994 s0.18 0.24 0.18 0.4 l0 2.62 l-0.86 0 c-0.28 0 -0.53 -0.06666 -0.75 -0.2 s-0.36334 -0.26 -0.43 -0.38 c-0.04 -0.06666 -0.09 -0.12666 -0.15 -0.18 s-0.16334 -0.08 -0.31 -0.08 l-1.44 0 c-0.09334 0 -0.17334 0.03 -0.24 0.09 s-0.1 0.13 -0.1 0.21 l0 3.34 c0 0.12 0.03334 0.2 0.1 0.24 s0.15332 0.06 0.25998 0.06 l2.42 0 c0.10666 0 0.18 0.08 0.22 0.24 s0.06 0.28666 0.06 0.38 l0 1.26 c0 0.18666 -0.08666 0.28 -0.26 0.28 l-2.5 0 c-0.06666 0 -0.13332 0.02666 -0.19998 0.08 s-0.1 0.12668 -0.1 0.22002 l0 3.6 c0 0.14666 0.02 0.24666 0.06 0.3 s0.09334 0.1 0.16 0.14 c0.10666 0.08 0.21 0.19334 0.31 0.34 s0.15 0.33332 0.15 0.55998 l0 1.26 l-4.08 0 l0 -1.26 c0 -0.22666 0.05334 -0.41332 0.16 -0.55998 s0.21332 -0.26 0.31998 -0.34 c0.05334 -0.04 0.09668 -0.08 0.13002 -0.12 s0.05668 -0.11334 0.07002 -0.22 l0 -9.82 c0 -0.21334 -0.08 -0.35334 -0.24 -0.42 c-0.13334 -0.06666 -0.24 -0.17332 -0.32 -0.31998 s-0.12 -0.37332 -0.12 -0.67998 l0 -1.2 l7.16 0 l0 0 z M46.32000000000001 5.039999999999999 c0.10666 0 0.21998 0.053282 0.33998 0.15994 s0.18 0.24 0.18 0.4 l0 2.62 l-0.86 0 c-0.28 0 -0.53 -0.06666 -0.75 -0.2 s-0.36334 -0.26 -0.43 -0.38 c-0.04 -0.06666 -0.09 -0.12666 -0.15 -0.18 s-0.16334 -0.08 -0.31 -0.08 l-1.44 0 c-0.09334 0 -0.17334 0.03 -0.24 0.09 s-0.1 0.13 -0.1 0.21 l0 3.34 c0 0.12 0.03334 0.2 0.1 0.24 s0.15332 0.06 0.25998 0.06 l2.42 0 c0.10666 0 0.18 0.08 0.22 0.24 s0.06 0.28666 0.06 0.38 l0 1.26 c0 0.18666 -0.08666 0.28 -0.26 0.28 l-2.5 0 c-0.06666 0 -0.13332 0.02666 -0.19998 0.08 s-0.1 0.12668 -0.1 0.22002 l0 3.6 c0 0.14666 0.02 0.24666 0.06 0.3 s0.09334 0.1 0.16 0.14 c0.10666 0.08 0.21 0.19334 0.31 0.34 s0.15 0.33332 0.15 0.55998 l0 1.26 l-4.08 0 l0 -1.26 c0 -0.22666 0.05334 -0.41332 0.16 -0.55998 s0.21332 -0.26 0.31998 -0.34 c0.05334 -0.04 0.09668 -0.08 0.13002 -0.12 s0.05668 -0.11334 0.07002 -0.22 l0 -9.82 c0 -0.21334 -0.08 -0.35334 -0.24 -0.42 c-0.13334 -0.06666 -0.24 -0.17332 -0.32 -0.31998 s-0.12 -0.37332 -0.12 -0.67998 l0 -1.2 l7.16 0 l0 0 z M51.620000000000005 7.359999999999999 c-0.06666 0 -0.12998 0.030058 -0.18998 0.090058 s-0.09 0.12334 -0.09 0.19 l0 3.32 c0 0.09334 0.03 0.16334 0.09 0.21 s0.13 0.07 0.21 0.07 l2.52 0 c0.06666 0 0.13666 0.02334 0.21 0.07 s0.11 0.12332 0.11 0.22998 l0 1.6 c0 0.18666 -0.1 0.28 -0.3 0.28 l-2.54 0 c-0.2 0 -0.3 0.08666 -0.3 0.26 l0 3.74 c0 0.08 0.03334 0.14666 0.1 0.2 s0.14 0.08 0.22 0.08 l1.6 0 c0.12 0 0.21334 -0.06666 0.28 -0.2 c0.02666 -0.06666 0.06 -0.14666 0.1 -0.24 s0.09666 -0.18 0.17 -0.26 s0.16334 -0.15 0.27 -0.21 s0.23332 -0.09 0.37998 -0.09 l1.24 0 l0 2.8 c0 0.14666 -0.07334 0.26666 -0.22 0.36 s-0.29332 0.14 -0.43998 0.14 l-1.3 0 l-4.58 0 l-1.2 0 l0 -1.2 c0 -0.29334 0.04 -0.51668 0.12 -0.67002 s0.18666 -0.26334 0.32 -0.33 c0.16 -0.09334 0.24 -0.23334 0.24 -0.42 l0 -9.72 c0 -0.21334 -0.08666 -0.36668 -0.26 -0.46002 c-0.13334 -0.06666 -0.23668 -0.17 -0.31002 -0.31 s-0.11 -0.34334 -0.11 -0.61 l0 -1.26 l7.16 0 c0.16 0 0.29666 0.06 0.41 0.18 s0.17 0.23334 0.17 0.34 l0 2.64 l-1.18 0 c-0.26666 0 -0.48 -0.06666 -0.64 -0.2 s-0.27334 -0.26 -0.34 -0.38 c-0.09334 -0.16 -0.23334 -0.24 -0.42 -0.24 l-1.5 0 l0 0 z M60.52000000000001 7.359999999999999 c-0.06666 0 -0.12998 0.030058 -0.18998 0.090058 s-0.09 0.12334 -0.09 0.19 l0 3.32 c0 0.09334 0.03 0.16334 0.09 0.21 s0.13 0.07 0.21 0.07 l2.52 0 c0.06666 0 0.13666 0.02334 0.21 0.07 s0.11 0.12332 0.11 0.22998 l0 1.6 c0 0.18666 -0.1 0.28 -0.3 0.28 l-2.54 0 c-0.2 0 -0.3 0.08666 -0.3 0.26 l0 3.74 c0 0.08 0.03334 0.14666 0.1 0.2 s0.14 0.08 0.22 0.08 l1.6 0 c0.12 0 0.21334 -0.06666 0.28 -0.2 c0.02666 -0.06666 0.06 -0.14666 0.1 -0.24 s0.09666 -0.18 0.17 -0.26 s0.16334 -0.15 0.27 -0.21 s0.23332 -0.09 0.37998 -0.09 l1.24 0 l0 2.8 c0 0.14666 -0.07334 0.26666 -0.22 0.36 s-0.29332 0.14 -0.43998 0.14 l-1.3 0 l-4.58 0 l-1.2 0 l0 -1.2 c0 -0.29334 0.04 -0.51668 0.12 -0.67002 s0.18666 -0.26334 0.32 -0.33 c0.16 -0.09334 0.24 -0.23334 0.24 -0.42 l0 -9.72 c0 -0.21334 -0.08666 -0.36668 -0.26 -0.46002 c-0.13334 -0.06666 -0.23668 -0.17 -0.31002 -0.31 s-0.11 -0.34334 -0.11 -0.61 l0 -1.26 l7.16 0 c0.16 0 0.29666 0.06 0.41 0.18 s0.17 0.23334 0.17 0.34 l0 2.64 l-1.18 0 c-0.26666 0 -0.48 -0.06666 -0.64 -0.2 s-0.27334 -0.26 -0.34 -0.38 c-0.09334 -0.16 -0.23334 -0.24 -0.42 -0.24 l-1.5 0 l0 0 z M69.42000000000002 7.359999999999999 c-0.06666 0 -0.12998 0.030058 -0.18998 0.090058 s-0.09 0.12334 -0.09 0.19 l0 3.32 c0 0.09334 0.03 0.16334 0.09 0.21 s0.13 0.07 0.21 0.07 l2.52 0 c0.06666 0 0.13666 0.02334 0.21 0.07 s0.11 0.12332 0.11 0.22998 l0 1.6 c0 0.18666 -0.1 0.28 -0.3 0.28 l-2.54 0 c-0.2 0 -0.3 0.08666 -0.3 0.26 l0 3.74 c0 0.08 0.03334 0.14666 0.1 0.2 s0.14 0.08 0.22 0.08 l1.6 0 c0.12 0 0.21334 -0.06666 0.28 -0.2 c0.02666 -0.06666 0.06 -0.14666 0.1 -0.24 s0.09666 -0.18 0.17 -0.26 s0.16334 -0.15 0.27 -0.21 s0.23332 -0.09 0.37998 -0.09 l1.24 0 l0 2.8 c0 0.14666 -0.07334 0.26666 -0.22 0.36 s-0.29332 0.14 -0.43998 0.14 l-1.3 0 l-4.58 0 l-1.2 0 l0 -1.2 c0 -0.29334 0.04 -0.51668 0.12 -0.67002 s0.18666 -0.26334 0.32 -0.33 c0.16 -0.09334 0.24 -0.23334 0.24 -0.42 l0 -9.72 c0 -0.21334 -0.08666 -0.36668 -0.26 -0.46002 c-0.13334 -0.06666 -0.23668 -0.17 -0.31002 -0.31 s-0.11 -0.34334 -0.11 -0.61 l0 -1.26 l7.16 0 c0.16 0 0.29666 0.06 0.41 0.18 s0.17 0.23334 0.17 0.34 l0 2.64 l-1.18 0 c-0.26666 0 -0.48 -0.06666 -0.64 -0.2 s-0.27334 -0.26 -0.34 -0.38 c-0.09334 -0.16 -0.23334 -0.24 -0.42 -0.24 l-1.5 0 l0 0 z M84.60000000000002 5.039999999999999 l-0.000039062 1.28 c0 0.22666 -0.05 0.41332 -0.15 0.55998 s-0.20334 0.25332 -0.31 0.31998 c-0.06666 0.05334 -0.12332 0.11334 -0.16998 0.18 s-0.08332 0.15332 -0.10998 0.25998 l-1 5.72 c-0.12 0.72 -0.24 1.4233 -0.36 2.11 s-0.22666 1.3 -0.32 1.84 s-0.17 0.97666 -0.23 1.31 s-0.09 0.50668 -0.09 0.52002 c-0.04 0.24 -0.10334 0.44334 -0.19 0.61 s-0.21666 0.25 -0.39 0.25 l-2.8 0 c-0.34666 0 -0.56666 -0.22 -0.66 -0.66 l-2.24 -11.7 c-0.02666 -0.13334 -0.05666 -0.22668 -0.09 -0.28002 s-0.08334 -0.10668 -0.15 -0.16002 c-0.10666 -0.06666 -0.20666 -0.17332 -0.3 -0.31998 s-0.14 -0.33332 -0.14 -0.55998 l0 -1.28 l4.02 0 l0 1.28 c0 0.24 -0.04666 0.43 -0.14 0.57 s-0.18668 0.24334 -0.28002 0.31 c-0.12 0.08 -0.18 0.22666 -0.18 0.44 l1.48 9.46 l1.42 -9.46 c0 -0.12 -0.02334 -0.21 -0.07 -0.27 s-0.10332 -0.11666 -0.16998 -0.17 c-0.10666 -0.06666 -0.20666 -0.17 -0.3 -0.31 s-0.14 -0.33 -0.14 -0.57 l0 -1.28 l4.06 0 z M89.26000000000002 7.359999999999999 c-0.06666 0 -0.12998 0.030058 -0.18998 0.090058 s-0.09 0.12334 -0.09 0.19 l0 3.32 c0 0.09334 0.03 0.16334 0.09 0.21 s0.13 0.07 0.21 0.07 l2.52 0 c0.06666 0 0.13666 0.02334 0.21 0.07 s0.11 0.12332 0.11 0.22998 l0 1.6 c0 0.18666 -0.1 0.28 -0.3 0.28 l-2.54 0 c-0.2 0 -0.3 0.08666 -0.3 0.26 l0 3.74 c0 0.08 0.03334 0.14666 0.1 0.2 s0.14 0.08 0.22 0.08 l1.6 0 c0.12 0 0.21334 -0.06666 0.28 -0.2 c0.02666 -0.06666 0.06 -0.14666 0.1 -0.24 s0.09666 -0.18 0.17 -0.26 s0.16334 -0.15 0.27 -0.21 s0.23332 -0.09 0.37998 -0.09 l1.24 0 l0 2.8 c0 0.14666 -0.07334 0.26666 -0.22 0.36 s-0.29332 0.14 -0.43998 0.14 l-1.3 0 l-4.58 0 l-1.2 0 l0 -1.2 c0 -0.29334 0.04 -0.51668 0.12 -0.67002 s0.18666 -0.26334 0.32 -0.33 c0.16 -0.09334 0.24 -0.23334 0.24 -0.42 l0 -9.72 c0 -0.21334 -0.08666 -0.36668 -0.26 -0.46002 c-0.13334 -0.06666 -0.23668 -0.17 -0.31002 -0.31 s-0.11 -0.34334 -0.11 -0.61 l0 -1.26 l7.16 0 c0.16 0 0.29666 0.06 0.41 0.18 s0.17 0.23334 0.17 0.34 l0 2.64 l-1.18 0 c-0.26666 0 -0.48 -0.06666 -0.64 -0.2 s-0.27334 -0.26 -0.34 -0.38 c-0.09334 -0.16 -0.23334 -0.24 -0.42 -0.24 l-1.5 0 l0 0 z M104.32000000000002 5.039999999999999 l0 1.3401 c0 0.21334 -0.05 0.39 -0.15 0.53 s-0.20334 0.25 -0.31 0.33 c-0.04 0.02666 -0.07666 0.06332 -0.11 0.10998 s-0.05668 0.11666 -0.07002 0.21 l0 11.86 c0 0.24 -0.04334 0.39666 -0.13 0.47 s-0.20332 0.11 -0.34998 0.11 l-1.22 0 c-0.37334 0 -0.63334 -0.16 -0.78 -0.48 c-0.04 -0.08 -0.14666 -0.32334 -0.32 -0.73 s-0.38 -0.89 -0.62 -1.45 s-0.49334 -1.1567 -0.76 -1.79 s-0.51332 -1.22 -0.73998 -1.76 s-0.42 -0.99334 -0.58 -1.36 s-0.24 -0.55666 -0.24 -0.57 s-0.0066602 -0.01334 -0.02 0 s-0.02 0.06 -0.02 0.14 l0 5.38 c0 0.12 0.02666 0.20666 0.08 0.26 s0.11334 0.1 0.18 0.14 c0.09334 0.06666 0.19 0.17332 0.29 0.31998 s0.15 0.33332 0.15 0.55998 l0 1.34 l-4.02 0 l0 -1.36 c0 -0.21334 0.05 -0.39 0.15 -0.53 s0.20334 -0.24334 0.31 -0.31 c0.04 -0.04 0.07666 -0.08 0.11 -0.12 s0.05668 -0.10666 0.07002 -0.2 l0 -10.02 c-0.13334 -0.04 -0.25334 -0.10666 -0.36 -0.2 c-0.09334 -0.08 -0.17668 -0.19334 -0.25002 -0.34 s-0.11 -0.33332 -0.11 -0.55998 l0 -1.32 l2.78 0 c0.16 0 0.3 0.08 0.42 0.24 s0.2 0.30666 0.24 0.44 c0.02666 0.09334 0.11332 0.32334 0.25998 0.69 s0.32666 0.80666 0.54 1.32 s0.44334 1.0633 0.69 1.65 s0.47666 1.14 0.69 1.66 s0.39668 0.97334 0.55002 1.36 s0.25 0.63332 0.29 0.73998 c0.01334 0.02666 0.02334 0.02666 0.03 0 s0.01 -0.06 0.01 -0.1 l0 -5.38 c0 -0.12 -0.02666 -0.21 -0.08 -0.27 s-0.11334 -0.11 -0.18 -0.15 c-0.09334 -0.06666 -0.18668 -0.17 -0.28002 -0.31 s-0.14 -0.33 -0.14 -0.57 l0 -1.32 l4 0 z M113.70000000000003 5.0600000000000005 c0.28 0 0.4767 0.046582 0.59004 0.13992 s0.17 0.31334 0.17 0.66 l0 1.4 l0 1 l-1.16 0 c-0.34666 0 -0.60666 -0.16 -0.78 -0.48 c-0.06666 -0.14666 -0.13 -0.24666 -0.19 -0.3 s-0.20334 -0.08 -0.43 -0.08 l-0.26 0 c-0.17334 0 -0.26 0.11334 -0.26 0.34 l-0.04 9.68 c0 0.13334 0.02666 0.22668 0.08 0.28002 s0.11334 0.10668 0.18 0.16002 c0.09334 0.06666 0.18668 0.17 0.28002 0.31 s0.14 0.33 0.14 0.57 l0 1.28 l-4.08 0 l0 -1.28 c0 -0.22666 0.05 -0.41332 0.15 -0.55998 s0.20334 -0.25332 0.31 -0.31998 c0.06666 -0.05334 0.12 -0.11334 0.16 -0.18 s0.06 -0.15332 0.06 -0.25998 l0 -9.74 c0 -0.09334 -0.04 -0.16334 -0.12 -0.21 s-0.15334 -0.07 -0.22 -0.07 l-0.2 0 c-0.08 0 -0.17666 0.02 -0.29 0.06 s-0.21 0.14666 -0.29 0.32 c-0.09334 0.18666 -0.19668 0.31332 -0.31002 0.37998 s-0.31668 0.1 -0.61002 0.1 l-1.04 0 l0 -1.1 l0 -1.3 c0 -0.30666 0.07334 -0.51666 0.22 -0.63 s0.33332 -0.17 0.55998 -0.17 l7.38 0 l0 0 z M118.74000000000002 9.52 c0 0.26666 0.12336 0.50996 0.37002 0.72996 s0.55666 0.44 0.93 0.66 s0.77334 0.45 1.2 0.69 s0.82666 0.51334 1.2 0.82 s0.68334 0.65666 0.93 1.05 s0.37 0.85668 0.37 1.39 l0 2.3 c0 0.50666 -0.11666 0.95 -0.35 1.33 s-0.53668 0.69334 -0.91002 0.94 s-0.79668 0.43 -1.27 0.55 s-0.95668 0.18 -1.45 0.18 s-0.98 -0.06 -1.46 -0.18 s-0.90666 -0.30334 -1.28 -0.55 s-0.67334 -0.56 -0.9 -0.94 s-0.34 -0.82334 -0.34 -1.33 l0 -1.7 l1.64 0 c0.36 0 0.63 0.11 0.81 0.33 s0.27 0.48334 0.27 0.79 l0 0.4 c0 0.21334 0.12334 0.4 0.37 0.56 s0.54332 0.24 0.88998 0.24 s0.63666 -0.09666 0.87 -0.29 s0.35 -0.38334 0.35 -0.57 l0 -1.56 c0 -0.44 -0.12334 -0.80334 -0.37 -1.09 s-0.55332 -0.54 -0.91998 -0.76 s-0.76666 -0.43 -1.2 -0.63 s-0.83334 -0.44334 -1.2 -0.73 s-0.67332 -0.63332 -0.91998 -1.04 s-0.37 -0.92332 -0.37 -1.55 l0 -1.68 c0 -0.53334 0.10334 -0.99 0.31 -1.37 s0.48332 -0.69334 0.82998 -0.94 s0.74666 -0.42666 1.2 -0.54 s0.92668 -0.17 1.42 -0.17 s0.96668 0.06334 1.42 0.19 s0.85 0.31332 1.19 0.55998 s0.61 0.56 0.81 0.94 s0.3 0.82334 0.3 1.33 l0 1.68 l-1.5 0 c-0.33334 0 -0.61334 -0.1 -0.84 -0.3 s-0.34 -0.46 -0.34 -0.78 l0 -0.42 c0 -0.28 -0.11 -0.49666 -0.33 -0.65 s-0.46334 -0.23 -0.73 -0.23 c-0.28 0 -0.51666 0.08 -0.71 0.24 s-0.29 0.34 -0.29 0.54 l0 1.56 z"/></g>
			</g>
		</svg>
	